name D:\school\WTK\thesis\model\3dpredictsim\Results\test_pp\Fal_s1_bCst_ig24_v2.mot
datacolumns 126
datarows 4
range 0.00000000 0.03322880
endheader
time	pelvis_tilt	pelvis_list	pelvis_rotation	pelvis_tx	pelvis_ty	pelvis_tz	hip_flexion_l	hip_adduction_l	hip_rotation_l	hip_flexion_r	hip_adduction_r	hip_rotation_r	knee_angle_l	knee_angle_r	ankle_angle_l	ankle_angle_r	subtalar_angle_l	subtalar_angle_r	mtp_angle_l	mtp_angle_r	lumbar_extension	lumbar_bending	lumbar_rotation	arm_flex_l	arm_add_l	arm_rot_l	arm_flex_r	arm_add_r	arm_rot_r	elbow_flex_l	elbow_flex_r	pro_sup_l	pro_sup_r	glut_med1_l/activation	glut_med2_l/activation	glut_med3_l/activation	glut_min1_l/activation	glut_min2_l/activation	glut_min3_l/activation	semimem_l/activation	semiten_l/activation	bifemlh_l/activation	bifemsh_l/activation	sar_l/activation	add_long_l/activation	add_brev_l/activation	add_mag1_l/activation	add_mag2_l/activation	add_mag3_l/activation	tfl_l/activation	pect_l/activation	grac_l/activation	glut_max1_l/activation	glut_max2_l/activation	glut_max3_l/activation	iliacus_l/activation	psoas_l/activation	quad_fem_l/activation	gem_l/activation	peri_l/activation	rect_fem_l/activation	vas_med_l/activation	vas_int_l/activation	vas_lat_l/activation	med_gas_l/activation	lat_gas_l/activation	soleus_l/activation	tib_post_l/activation	flex_dig_l/activation	flex_hal_l/activation	tib_ant_l/activation	per_brev_l/activation	per_long_l/activation	per_tert_l/activation	ext_dig_l/activation	ext_hal_l/activation	ercspn_l/activation	intobl_l/activation	extobl_l/activation	glut_med1_r/activation	glut_med2_r/activation	glut_med3_r/activation	glut_min1_r/activation	glut_min2_r/activation	glut_min3_r/activation	semimem_r/activation	semiten_r/activation	bifemlh_r/activation	bifemsh_r/activation	sar_r/activation	add_long_r/activation	add_brev_r/activation	add_mag1_r/activation	add_mag2_r/activation	add_mag3_r/activation	tfl_r/activation	pect_r/activation	grac_r/activation	glut_max1_r/activation	glut_max2_r/activation	glut_max3_r/activation	iliacus_r/activation	psoas_r/activation	quad_fem_r/activation	gem_r/activation	peri_r/activation	rect_fem_r/activation	vas_med_r/activation	vas_int_r/activation	vas_lat_r/activation	med_gas_r/activation	lat_gas_r/activation	soleus_r/activation	tib_post_r/activation	flex_dig_r/activation	flex_hal_r/activation	tib_ant_r/activation	per_brev_r/activation	per_long_r/activation	per_tert_r/activation	ext_dig_r/activation	ext_hal_r/activation	ercspn_r/activation	intobl_r/activation	extobl_r/activation	
          0.00000000	         -2.93016592	         -1.93863019	          4.90082016	          0.00000000	          0.90678046	         -0.00206434	        -17.88458119	         -1.00929097	          6.72896385	         30.02543891	          3.23682472	         -1.73034661	         -5.33650385	        -12.79586026	          0.86326473	          6.72399128	          8.67884760	         -5.14855138	         21.17385869	         -0.12213815	         -2.24174234	          0.16570104	         -1.88964250	          5.76572956	        -13.45218854	         15.79717566	         -5.63849038	        -13.49954053	          6.01450292	         34.59017891	         16.64104664	         86.51662706	         86.51662706	          0.32848455	          0.11277074	          0.08034387	          0.34182269	          0.21854920	          0.11663779	          0.05000149	          0.05000035	          0.05000023	          0.06804142	          0.11075355	          0.05000025	          0.05000022	          0.05000028	          0.05000071	          0.05000048	          0.31564405	          0.05000112	          0.05000080	          0.05005867	          0.05001756	          0.05000228	          0.38777781	          0.64244453	          0.05000069	          0.05000184	          0.05217173	          0.17966793	          0.05000071	          0.05000070	          0.05000066	          0.31559465	          0.42339562	          0.31307762	          0.28563888	          0.31476841	          0.40316398	          0.05000006	          0.05644226	          0.13919541	          0.05000030	          0.05000009	          0.05000033	          0.05000002	          0.05000002	          0.05000006	          0.11747872	          0.05000022	          0.05923030	          0.05000014	          0.05000020	          0.05000075	          0.05923046	          0.05923087	          0.18137318	          0.05000087	          0.05000265	          0.11058222	          0.17933586	          0.22167273	          0.16587441	          0.11768341	          0.05923002	          0.05010601	          0.05980075	          0.05933977	          0.07016445	          0.11759387	          0.05000014	          0.05000017	          0.26687102	          0.05006961	          0.05000064	          0.05000045	          0.09249085	          0.09470373	          0.07964323	          0.05903609	          0.05000276	          0.05923018	          0.05000008	          0.05000047	          0.05000055	          0.53280852	          0.32244454	          0.19572292	          0.22812415	          0.50945481	          0.21801593	          0.06786901	          0.11836790	          0.11667199	
          0.01107627	         -2.92718134	         -2.04469680	          5.21112699	          0.01649962	          0.90571794	         -0.00186095	        -17.79132232	         -1.32190382	          6.50865393	         29.45449911	          3.58754416	         -1.51718882	         -7.25660937	        -12.66590254	          0.18349683	          6.14997806	          9.62298409	         -5.57109566	         22.19382804	         -0.10161061	         -2.05943108	          0.38854332	         -1.95377478	          5.53731792	        -13.46024096	         16.12488321	         -6.49122135	        -13.50081602	          5.80423256	         35.78696329	         16.26324057	         86.51662706	         86.51662706	          0.27729485	          0.09519700	          0.06782344	          0.28855449	          0.18449138	          0.09846146	          0.05000741	          0.05000092	          0.05000102	          0.05743820	          0.09349447	          0.11062102	          0.06840120	          0.05617943	          0.05004026	          0.05007381	          0.26645542	          0.07150324	          0.05001383	          0.05000834	          0.05000403	          0.05000525	          0.32734803	          0.57113497	          0.05000074	          0.05003479	          0.05923030	          0.15166976	          0.05004051	          0.16206886	          0.15388501	          0.26641354	          0.35741524	          0.27445245	          0.26594052	          0.26572457	          0.35143057	          0.05000006	          0.05001544	          0.14507672	          0.05000032	          0.05000008	          0.05000031	          0.05000007	          0.07016439	          0.05000008	          0.09917139	          0.05922990	          0.05000029	          0.05923117	          0.05923033	          0.05000163	          0.05000028	          0.05000081	          0.15514100	          0.05000066	          0.05000251	          0.10574499	          0.15138967	          0.23963008	          0.18711939	          0.11735890	          0.05000047	          0.05001945	          0.05048223	          0.05009292	          0.05923042	          0.12681608	          0.05228259	          0.05091309	          0.53076049	          0.13825688	          0.05000294	          0.07016505	          0.19415995	          0.19338212	          0.16804483	          0.05000001	          0.05000004	          0.05000000	          0.05000051	          0.05000170	          0.05000090	          0.58733635	          0.27219631	          0.19899857	          0.41470377	          0.54750349	          0.20785006	          0.05729259	          0.09992189	          0.09849027	
          0.02215253	         -2.92028908	         -2.14779914	          5.49961145	          0.03330457	          0.90467746	         -0.00166849	        -17.62066452	         -1.62867875	          6.27641216	         28.76686859	          3.88235876	         -1.24883356	         -9.32002491	        -13.08580119	         -0.65630639	          5.51967438	         10.53170973	         -6.01384543	         23.07111897	         -0.14102882	         -1.85599661	          0.61535601	         -2.00779184	          5.23692231	        -13.46862552	         16.39607428	         -7.37649088	        -13.50426287	          5.62883835	         36.95019597	         15.94223438	         86.51662706	         86.51662706	          0.31732097	          0.08036188	          0.05725417	          0.24358762	          0.15574102	          0.08311765	          0.05000219	          0.05000082	          0.05000078	          0.05000021	          0.07892513	          0.14177654	          0.10798354	          0.05923433	          0.05922624	          0.05922899	          0.22493236	          0.08306736	          0.05002103	          0.05003272	          0.05002964	          0.05012064	          0.27633554	          0.54672630	          0.05025264	          0.05000181	          0.05000024	          0.12803416	          0.11753849	          0.13681363	          0.12990488	          0.22489663	          0.30171697	          0.23168278	          0.22449752	          0.22431548	          0.29666532	          0.05000003	          0.05000036	          0.16142265	          0.05000014	          0.05000004	          0.05000020	          0.05706939	          0.05923025	          0.05369803	          0.26825851	          0.05000010	          0.27017138	          0.05000089	          0.05000027	          0.19798552	          0.07210830	          0.05000033	          0.14327607	          0.05000010	          0.05000050	          0.08926723	          0.25884195	          0.20228852	          0.15796192	          0.13470279	          0.05000096	          0.05931637	          0.11408375	          0.05000020	          0.05000043	          0.11685800	          0.05527386	          0.05000164	          0.44804879	          0.11671157	          0.15597683	          0.05923081	          0.16390290	          0.16324629	          0.14185744	          0.05924572	          0.05924510	          0.05923032	          0.05923030	          0.05923023	          0.05923027	          0.49580801	          0.29361028	          0.16798743	          0.35007830	          0.54916247	          0.17545952	          0.05000005	          0.10676475	          0.08314191	
          0.03322880	         -2.91125320	         -2.25204417	          5.75820477	          0.05024968	          0.90366810	         -0.00146487	        -17.35315805	         -1.92944940	          6.03899846	         27.96387528	          4.13893004	         -0.97257599	        -11.53937357	        -13.54609769	         -1.64957195	          5.03542311	         11.38211906	         -6.44962011	         23.75156033	         -0.14564642	         -1.64785153	          0.84926277	         -2.05324708	          4.88804804	        -13.47987941	         16.61955309	         -8.25257688	        -13.51026971	          5.50407966	         38.06721499	         15.65297570	         86.51662706	         86.51662706	          0.31150159	          0.06783863	          0.05000013	          0.34866379	          0.13147103	          0.07016498	          0.05000689	          0.05000031	          0.05000026	          0.05000038	          0.06662764	          0.14224073	          0.09115615	          0.05000395	          0.05000191	          0.05000103	          0.19876667	          0.07013706	          0.05000096	          0.05000237	          0.05000126	          0.05000089	          0.23327260	          0.50770852	          0.05000016	          0.05000112	          0.05000070	          0.12201179	          0.09922277	          0.11549495	          0.13226044	          0.18984956	          0.25469851	          0.19557818	          0.18951273	          0.18935920	          0.25043426	          0.05000007	          0.08690200	          0.16523260	          0.05000027	          0.05000026	          0.05000029	          0.07166742	          0.05000004	          0.05000004	          0.31136682	          0.27958012	          0.35156819	          0.20549234	          0.21030786	          0.16713362	          0.06087138	          0.09247337	          0.12094853	          0.08311880	          0.05922873	          0.07535620	          0.21850501	          0.17076479	          0.13334605	          0.15425844	          0.05000050	          0.05007309	          0.09630730	          0.21670821	          0.16245368	          0.13111702	          0.05000012	          0.05000014	          0.37822661	          0.09852400	          0.13167040	          0.05000052	          0.13836097	          0.13780671	          0.11975099	          0.05001312	          0.05001261	          0.05000009	          0.05000009	          0.05000019	          0.05000025	          0.63011463	          0.36695027	          0.19333696	          0.62613563	          0.60501076	          0.30027202	          0.07748828	          0.09811865	          0.07018539	
